HIERARCHY
ROOT Hips
{
  OFFSET 48.6133 93.7281 15.8582
  CHANNELS 6 Xposition Yposition Zposition Zrotation Xrotation Yrotation
  JOINT spine
  {
    OFFSET 0 7.4756 0.429885
    CHANNELS 3 Zrotation Xrotation Yrotation
    JOINT spine1
    {
      OFFSET 0 9.92301 0
      CHANNELS 3 Zrotation Xrotation Yrotation
      JOINT spine2
      {
        OFFSET 0 9.50804 0
        CHANNELS 3 Zrotation Xrotation Yrotation
        JOINT Neck
        {
          OFFSET 0 24.4111 1.16384
          CHANNELS 3 Zrotation Xrotation Yrotation
          JOINT Head
          {
            OFFSET 0 7.37523 0
            CHANNELS 3 Zrotation Xrotation Yrotation
            End Site
            {
              OFFSET 0 17.8522 -5.88741
            }
          }
        }
        JOINT RightShoulder
        {
          OFFSET -4.00356 10.2679 -0.557468
          CHANNELS 3 Zrotation Xrotation Yrotation
          JOINT RightArm
          {
            OFFSET 0 13.4673 0
            CHANNELS 3 Zrotation Xrotation Yrotation
            JOINT RightArmRoll
            {
              OFFSET 0 6.79858 0
              CHANNELS 3 Zrotation Xrotation Yrotation
              JOINT RightForeArm
              {
                OFFSET 0 19.8018 0
                CHANNELS 3 Zrotation Xrotation Yrotation
                JOINT RightForeArmRoll
                {
                  OFFSET 0 7.62905 0
                  CHANNELS 3 Zrotation Xrotation Yrotation
                  JOINT RightHand
                  {
                    OFFSET 0 15.3098 0
                    CHANNELS 3 Zrotation Xrotation Yrotation
                    End Site
                    {
                      OFFSET 0 0 0
                    }
                  }
                }
              }
            }
          }
        }
        JOINT LeftShoulder
        {
          OFFSET 4.00356 10.2679 -0.557468
          CHANNELS 3 Zrotation Xrotation Yrotation
          JOINT LeftArm
          {
            OFFSET 0 13.4673 0
            CHANNELS 3 Zrotation Xrotation Yrotation
            JOINT LeftArmRoll
            {
              OFFSET 0 6.79858 0
              CHANNELS 3 Zrotation Xrotation Yrotation
              JOINT LeftForeArm
              {
                OFFSET 0 19.8018 0
                CHANNELS 3 Zrotation Xrotation Yrotation
                JOINT LeftForeArmRoll
                {
                  OFFSET 0 7.62905 0
                  CHANNELS 3 Zrotation Xrotation Yrotation
                  JOINT LeftHand
                  {
                    OFFSET 0 15.3098 0
                    CHANNELS 3 Zrotation Xrotation Yrotation
                    End Site
                    {
                      OFFSET 0 0 0
                    }
                  }
                }
              }
            }
          }
        }
      }
    }
  }
  JOINT RightUpLeg
  {
    OFFSET -6.62609 -1.21505 -1.01927
    CHANNELS 3 Zrotation Xrotation Yrotation
    JOINT RightUpLegRoll
    {
      OFFSET 0 17.9517 0
      CHANNELS 3 Zrotation Xrotation Yrotation
      JOINT RightLeg
      {
        OFFSET 0 -22.2304 0
        CHANNELS 3 Zrotation Xrotation Yrotation
        JOINT RightLegRoll
        {
          OFFSET 0 22.3032 0
          CHANNELS 3 Zrotation Xrotation Yrotation
          JOINT RightFoot
          {
            OFFSET 0 18.5636 0
            CHANNELS 3 Zrotation Xrotation Yrotation
            JOINT RightToeBase
            {
              OFFSET 0 15.5183 0
              CHANNELS 3 Zrotation Xrotation Yrotation
              End Site
              {
                OFFSET 0.00657761 7.51539 -0.866262
              }
            }
          }
        }
      }
    }
  }
  JOINT LeftUpLeg
  {
    OFFSET 6.62609 -1.21505 -1.01927
    CHANNELS 3 Zrotation Xrotation Yrotation
    JOINT LeftUpLegRoll
    {
      OFFSET 0 17.9518 0
      CHANNELS 3 Zrotation Xrotation Yrotation
      JOINT LeftLeg
      {
        OFFSET 0 22.2303 0
        CHANNELS 3 Zrotation Xrotation Yrotation
        JOINT LeftLegRoll
        {
          OFFSET 0 22.5093 0
          CHANNELS 3 Zrotation Xrotation Yrotation
          JOINT LeftFoot
          {
            OFFSET 0 18.3575 0
            CHANNELS 3 Zrotation Xrotation Yrotation
            JOINT LeftToeBase
            {
              OFFSET 0 15.5183 0
              CHANNELS 3 Zrotation Xrotation Yrotation
              End Site
              {
                OFFSET -0.029478 7.51539 -0.866263
              }
            }
          }
        }
      }
    }
  }
}
MOTION
Frames: 11
Frame Time: 0.00208333
51.4068 93.541 12.0095 -1.2191 1.18935 1.61094 0.111384 -2.03936 0.0734041 0.220507 -0.0605954 0.133014 0.219004 1.58448 0.129519 -4.29696 6.28603 -2.91205 6.34665 5.86888 -3.55274 70.9232 -3.39237 -3.05936 95.3313 10.8483 22.0174 1.9061e-005 -1.76138e-006 -2.03962e-006 5.90567 0.0549223 -1.24682 1.24676e-005 -1.01222e-006 -3.05212 8.02938 -4.95144 0.697638 -72.7831 -2.91769 2.97903 -92.8104 15.5777 -27.9437 3.02819e-006 -5.33099e-007 1.81178e-005 1.51441 3.70067 0.816409 1.3465e-006 -8.84611e-007 3 -8.03023 -4.9514 -0.697641 179.278 3.61469 -1.08728 -180 7.01548e-015 178.929 178.465 10.3765 179.638 7.32479e-006 -1.12392e-006 0.21327 -20.3105 69.8473 21.2382 8.13095 25.233 -3.48538 -178.342 3.11207 2.92113 4.54188e-006 -4.6773e-006 -0.961683 -2.2536 -5.13544 0.0575086 -1.81564e-007 -4.47947e-006 -0.0472938 18.3937 67.6623 -19.2551 -8.13513 25.2327 3.48716 
51.3896 93.5463 12.0093 -1.22877 1.22532 1.60454 0.111465 -2.0412 0.0729148 0.220994 -0.0649714 0.132494 0.219489 1.5801 0.128977 -4.31659 6.25542 -2.90671 6.36245 5.86343 -3.5492 70.9161 -3.38363 -3.0546 95.3775 10.8092 21.9282 1.9061e-005 -1.76138e-006 -2.03962e-006 5.96511 0.0549146 -1.24657 1.24676e-005 -1.01222e-006 -3.05272 8.02938 -4.95144 0.697638 -72.8363 -2.90613 2.97792 -92.7559 15.5451 -27.9258 3.02819e-006 -5.33099e-007 1.81178e-005 1.4707 3.80187 0.818024 1.3465e-006 -8.84611e-007 3 -8.03023 -4.9514 -0.697641 179.298 3.65149 -1.10264 -180 7.01548e-015 178.929 178.467 10.3825 179.637 7.32479e-006 -1.12392e-006 0.21327 -20.293 69.8301 21.2196 8.13095 25.233 -3.48538 -178.326 3.15129 2.91209 4.54188e-006 -4.6773e-006 -0.96144 -2.25626 -5.14036 0.0574532 -1.81564e-007 -4.47947e-006 -0.0472938 18.3912 67.6593 -19.2525 -8.13513 25.2327 3.48716 
51.3782 93.5441 12.0136 -1.23859 1.26112 1.59795 0.111584 -2.04309 0.0724211 0.221574 -0.0695201 0.131982 0.220068 1.57555 0.128442 -4.33594 6.22632 -2.90119 6.37765 5.85745 -3.5455 70.9102 -3.37465 -3.04979 95.4226 10.7709 21.8369 1.9061e-005 -1.76138e-006 -2.03962e-006 6.02606 0.0549061 -1.24643 1.24676e-005 -1.01222e-006 -3.05336 8.02938 -4.95144 0.697638 -72.8893 -2.89449 2.97676 -92.7014 15.512 -27.9074 3.02819e-006 -5.33099e-007 1.81178e-005 1.42643 3.90274 0.8196 1.3465e-006 -8.84611e-007 3 -8.03023 -4.9514 -0.697641 179.319 3.68721 -1.11811 -180 7.01548e-015 178.929 178.468 10.3871 179.636 7.32479e-006 -1.12392e-006 0.21327 -20.2755 69.8129 21.201 8.13095 25.233 -3.48538 -178.309 3.19004 2.90307 4.54188e-006 -4.6773e-006 -0.961207 -2.25884 -5.14473 0.057395 -1.81564e-007 -4.47947e-006 -0.0472938 18.3887 67.6562 -19.2498 -8.13513 25.2327 3.48716 
51.3618 93.5371 12.0045 -1.24851 1.29681 1.59124 0.111732 -2.04502 0.0719245 0.222221 -0.0741898 0.131475 0.220712 1.57088 0.12791 -4.35511 6.19828 -2.89556 6.39244 5.85109 -3.54167 70.9051 -3.36549 -3.04497 95.4669 10.7332 21.7441 1.9061e-005 -1.76138e-006 -2.03962e-006 6.08806 0.0548971 -1.24637 1.24676e-005 -1.01222e-006 -3.05403 8.02938 -4.95144 0.697638 -72.9421 -2.88278 2.97555 -92.6469 15.4786 -27.8886 3.02819e-006 -5.33099e-007 1.81178e-005 1.38175 4.00339 0.82115 1.3465e-006 -8.84611e-007 3 -8.03023 -4.9514 -0.697641 179.339 3.72217 -1.13367 -180 7.01548e-015 178.929 178.47 10.3908 179.635 7.32479e-006 -1.12392e-006 0.21327 -20.258 69.7957 21.1824 8.13095 25.233 -3.48538 -178.292 3.22846 2.89406 4.54188e-006 -4.6773e-006 -0.960983 -2.26135 -5.14872 0.057335 -1.81564e-007 -4.47947e-006 -0.0472938 18.3861 67.6529 -19.247 -8.13513 25.2327 3.48716 
51.3492 93.538 12.0094 -1.25849 1.33242 1.58446 0.111894 -2.04698 0.0714261 0.222904 -0.0789286 0.130972 0.221393 1.56614 0.127381 -4.37417 6.17086 -2.88986 6.40699 5.84452 -3.53778 70.9004 -3.35624 -3.04013 95.5107 10.6958 21.6504 1.9061e-005 -1.76138e-006 -2.03962e-006 6.15068 0.0548877 -1.24634 1.24676e-005 -1.01222e-006 -3.05471 8.02938 -4.95144 0.697638 -72.9949 -2.87103 2.97432 -92.5925 15.445 -27.8696 3.02819e-006 -5.33099e-007 1.81178e-005 1.33684 4.10391 0.822686 1.3465e-006 -8.84611e-007 3 -8.03023 -4.9514 -0.697641 179.36 3.75669 -1.14927 -180 7.01548e-015 178.93 178.471 10.3938 179.634 7.32479e-006 -1.12392e-006 0.21327 -20.2405 69.7785 21.1638 8.13095 25.233 -3.48538 -178.276 3.26668 2.88505 4.54188e-006 -4.6773e-006 -0.960763 -2.26382 -5.15248 0.0572739 -1.81564e-007 -4.47947e-006 -0.0472938 18.3834 67.6496 -19.2442 -8.13513 25.2327 3.48716 
51.3394 93.5388 12.008 -1.26848 1.36803 1.57766 0.112061 -2.04894 0.0709272 0.223597 -0.0836847 0.13047 0.222083 1.56138 0.126852 -4.3932 6.14358 -2.88414 6.42149 5.83789 -3.53388 70.8958 -3.34696 -3.03529 95.5542 10.6584 21.5566 1.9061e-005 -1.76138e-006 -2.03962e-006 6.21344 0.0548782 -1.24633 1.24676e-005 -1.01222e-006 -3.0554 8.02938 -4.95144 0.697638 -73.0477 -2.85928 2.97308 -92.5381 15.4113 -27.8505 3.02819e-006 -5.33099e-007 1.81178e-005 1.29187 4.20439 0.824221 1.3465e-006 -8.84611e-007 3 -8.03023 -4.9514 -0.697641 179.381 3.79111 -1.16489 -180 7.01549e-015 178.93 178.473 10.3967 179.634 7.32479e-006 -1.12392e-006 0.21327 -20.2231 69.7614 21.1452 8.13095 25.233 -3.48538 -178.259 3.30487 2.87605 4.54188e-006 -4.6773e-006 -0.960544 -2.26628 -5.1562 0.0572126 -1.81564e-007 -4.47947e-006 -0.0472938 18.3807 67.6463 -19.2413 -8.13513 25.2327 3.48716 
51.3239 93.5388 12.0087 -1.27843 1.40366 1.5709 0.11222 -2.05088 0.0704292 0.224271 -0.0884062 0.129966 0.222755 1.55666 0.126322 -4.41228 6.116 -2.87845 6.4361 5.83137 -3.53001 70.891 -3.33773 -3.03046 95.5978 10.6208 21.4632 1.9061e-005 -1.76138e-006 -2.03962e-006 6.2759 0.0548689 -1.2463 1.24676e-005 -1.01222e-006 -3.05608 8.02938 -4.95144 0.697638 -73.1004 -2.84754 2.97186 -92.4836 15.3778 -27.8316 3.02819e-006 -5.33099e-007 1.81178e-005 1.247 4.30494 0.825767 1.3465e-006 -8.84611e-007 3 -8.03023 -4.9514 -0.697641 179.402 3.82574 -1.18048 -180 7.01549e-015 178.93 178.474 10.3999 179.633 7.32479e-006 -1.12392e-006 0.21327 -20.2056 69.7442 21.1267 8.13095 25.233 -3.48538 -178.242 3.34314 2.86704 4.54188e-006 -4.6773e-006 -0.960322 -2.26876 -5.16002 0.0571518 -1.81564e-007 -4.47947e-006 -0.0472938 18.378 67.643 -19.2385 -8.13513 25.2327 3.48716 
51.3139 93.5298 12.0085 -1.28829 1.43938 1.56423 0.112359 -2.0528 0.0699334 0.224898 -0.0930413 0.129458 0.22338 1.55202 0.125789 -4.43148 6.08766 -2.87286 6.45101 5.82512 -3.52622 70.8856 -3.32862 -3.02565 95.6418 10.5826 21.371 1.9061e-005 -1.76138e-006 -2.03962e-006 6.33761 0.0548601 -1.24621 1.24676e-005 -1.01222e-006 -3.05675 8.02938 -4.95144 0.697638 -73.1533 -2.83585 2.97067 -92.429 15.3444 -27.813 3.02819e-006 -5.33099e-007 1.81178e-005 1.20242 4.40566 0.827337 1.3465e-006 -8.84611e-007 3 -8.03023 -4.9514 -0.697641 179.422 3.86092 -1.19602 -180 7.01549e-015 178.93 178.476 10.4038 179.632 7.32479e-006 -1.12392e-006 0.21327 -20.1883 69.727 21.1082 8.13095 25.233 -3.48538 -178.225 3.38166 2.85803 4.54188e-006 -4.6773e-006 -0.960095 -2.27129 -5.16412 0.0570923 -1.81564e-007 -4.47947e-006 -0.0472938 18.3754 67.6397 -19.2357 -8.13513 25.2327 3.48716 
51.3014 93.5281 12.0093 -1.29801 1.47523 1.5577 0.112467 -2.05468 0.0694411 0.225449 -0.0975382 0.128943 0.22393 1.54752 0.125251 -4.45088 6.0581 -2.86741 6.4664 5.8193 -3.52256 70.8794 -3.31971 -3.02086 95.6864 10.5435 21.2805 1.9061e-005 -1.76138e-006 -2.03962e-006 6.3981 0.0548518 -1.24604 1.24676e-005 -1.01222e-006 -3.05738 8.02938 -4.95144 0.697638 -73.2064 -2.82423 2.96952 -92.3744 15.3114 -27.7948 3.02819e-006 -5.33099e-007 1.81178e-005 1.15828 4.50663 0.828943 1.3465e-006 -8.84611e-007 3 -8.03023 -4.9514 -0.697641 179.443 3.89695 -1.21147 -180 7.01549e-015 178.93 178.478 10.4089 179.631 7.32479e-006 -1.12392e-006 0.21327 -20.171 69.7098 21.0898 8.13095 25.233 -3.48538 -178.209 3.42055 2.849 4.54188e-006 -4.6773e-006 -0.95986 -2.27389 -5.16866 0.057035 -1.81564e-007 -4.47947e-006 -0.0472938 18.3729 67.6366 -19.2331 -8.13513 25.2327 3.48716 
51.2797 93.5291 12.0154 -1.30755 1.51127 1.55137 0.112532 -2.05649 0.0689536 0.225898 -0.101845 0.12842 0.224377 1.54322 0.124707 -4.47057 6.02688 -2.86215 6.48243 5.81406 -3.51909 70.8719 -3.31107 -3.0161 95.7319 10.5034 21.1925 1.9061e-005 -1.76138e-006 -2.03962e-006 6.45693 0.0548445 -1.24575 1.24676e-005 -1.01222e-006 -3.05796 8.02938 -4.95144 0.697638 -73.2596 -2.81271 2.96845 -92.3196 15.2788 -27.7773 3.02819e-006 -5.33099e-007 1.81178e-005 1.11475 4.60795 0.830599 1.3465e-006 -8.84611e-007 3 -8.03023 -4.9514 -0.697641 179.463 3.93418 -1.22681 -180 7.01549e-015 178.931 178.479 10.4155 179.63 7.32479e-006 -1.12392e-006 0.21327 -20.1538 69.6925 21.0714 8.13095 25.233 -3.48538 -178.192 3.45996 2.83996 4.54188e-006 -4.6773e-006 -0.959612 -2.2766 -5.17379 0.0569805 -1.81564e-007 -4.47947e-006 -0.0472938 18.3705 67.6337 -19.2306 -8.13513 25.2327 3.48716 
51.2664 93.527 12.0144 -1.31686 1.54754 1.54529 0.112541 -2.05823 0.0684721 0.226215 -0.10591 0.127885 0.224694 1.53915 0.124155 -4.49061 5.99352 -2.85714 6.4993 5.80958 -3.51585 70.8629 -3.30278 -3.0114 95.7786 10.4619 21.1075 1.9061e-005 -1.76138e-006 -2.03962e-006 6.51364 0.0548383 -1.24531 1.24676e-005 -1.01222e-006 -3.05849 8.02938 -4.95144 0.697638 -73.313 -2.80131 2.96745 -92.2646 15.2469 -27.7605 3.02819e-006 -5.33099e-007 1.81178e-005 1.07202 4.70973 0.832316 1.3465e-006 -8.84611e-007 3 -8.03023 -4.9514 -0.697641 179.483 3.97292 -1.24198 -180 7.01549e-015 178.931 178.481 10.424 179.629 7.32479e-006 -1.12392e-006 0.21327 -20.1366 69.6752 21.0531 8.13095 25.233 -3.48538 -178.176 3.50003 2.8309 4.54188e-006 -4.6773e-006 -0.959348 -2.27944 -5.1797 0.0569299 -1.81564e-007 -4.47947e-006 -0.0472938 18.3683 67.631 -19.2283 -8.13513 25.2327 3.48716 
